<?xml version="1.0" encoding="utf-8"?>
<!-- Generator: Adobe Illustrator 24.2.1, SVG Export Plug-In . SVG Version: 6.00 Build 0)  -->
<svg version="1.1" id="Layer_1" xmlns="http://www.w3.org/2000/svg" xmlns:xlink="http://www.w3.org/1999/xlink" x="0px" y="0px"
	 viewBox="0 0 101.27 56" style="enable-background:new 0 0 101.27 56;" xml:space="preserve">
<style type="text/css">
	.st0{fill:#5C666F;}
	.st1{fill:#EA6903;}
</style>
<g id="hungarian">
	<g id="color">
		<path class="st0" d="M46.87,24c-0.53-0.45-1.13-0.78-1.79-1l-0.95-0.35l-0.48-0.18c-0.39-0.1-0.76-0.27-1.08-0.51
			c-0.17-0.15-0.25-0.37-0.24-0.59c0-0.26,0.1-0.51,0.29-0.69c0.31-0.28,0.72-0.42,1.14-0.38c0.75,0.03,1.46,0.34,2,0.86l0.13,0.11
			l1.51-2.37l-0.11-0.08c-1.11-0.83-2.47-1.28-3.86-1.26c-1.2-0.09-2.38,0.34-3.24,1.18c-0.79,0.76-1.22,1.81-1.19,2.9
			c-0.05,0.83,0.24,1.65,0.8,2.27c0.52,0.48,1.15,0.82,1.83,1l1.06,0.36c0.5,0.16,0.99,0.38,1.43,0.67c0.25,0.18,0.4,0.48,0.39,0.79
			c0.01,0.35-0.14,0.68-0.4,0.9c-0.36,0.27-0.8,0.41-1.25,0.4c-0.54,0-1.07-0.14-1.53-0.43c-0.42-0.27-0.81-0.58-1.16-0.93
			l-0.12-0.11l-1.65,2.3l0.09,0.08c0.56,0.55,1.2,1.02,1.9,1.39c0.81,0.38,1.69,0.57,2.58,0.54c1.36,0.09,2.7-0.38,3.71-1.31
			c0.78-0.88,1.2-2.02,1.17-3.19C47.86,25.48,47.51,24.62,46.87,24z"/>
		<polygon class="st0" points="57.58,21.97 48.77,21.97 48.77,24.49 52.4,24.49 47.97,30.59 57.07,30.59 57.07,28.07 53.17,28.07 		
			"/>
		<path class="st0" d="M64.61,22v0.7c-0.67-0.67-1.58-1.03-2.53-1c-1.14-0.03-2.25,0.39-3.08,1.17c-0.89,0.93-1.38,2.18-1.35,3.47
			c-0.02,1.2,0.44,2.36,1.27,3.22c0.85,0.89,2.05,1.37,3.29,1.31c0.9,0.04,1.78-0.32,2.38-1v0.74h3V22H64.61z M64.78,26.29
			c0,1.1-0.9,2-2,2c-0.57,0.01-1.12-0.21-1.52-0.61c-0.35-0.38-0.54-0.88-0.53-1.4c0-0.53,0.21-1.04,0.58-1.41
			c0.38-0.36,0.89-0.56,1.42-0.56c0.53,0,1.03,0.19,1.43,0.54c0.39,0.37,0.61,0.88,0.62,1.41V26.29z"/>
		<path class="st0" d="M77.93,22.85c-0.84-0.76-1.93-1.18-3.06-1.16c-0.94-0.03-1.85,0.34-2.51,1v-6h-3v13.9h3v-0.75
			c0.66,0.69,1.59,1.05,2.55,1c1.12,0.04,2.21-0.38,3-1.18c0.91-0.92,1.41-2.16,1.38-3.45C79.32,24.95,78.83,23.73,77.93,22.85z
			 M76.21,26.3c0,1.1-0.9,2-2,2c-0.54-0.01-1.07-0.21-1.47-0.58c-0.38-0.36-0.59-0.87-0.58-1.39c-0.01-0.54,0.19-1.06,0.57-1.44
			c0.79-0.74,2.01-0.76,2.82-0.05C75.96,25.21,76.2,25.74,76.21,26.3z"/>
		<path class="st0" d="M87,22v0.7c-0.67-0.67-1.59-1.03-2.54-1c-1.11-0.01-2.19,0.41-3,1.18c-0.9,0.93-1.38,2.18-1.36,3.47
			c-0.02,1.2,0.44,2.36,1.28,3.22c0.85,0.89,2.05,1.37,3.29,1.31c0.9,0.04,1.78-0.32,2.38-1v0.74h3V22H87z M87.17,26.29
			c0.01,0.56-0.22,1.09-0.63,1.47c-0.35,0.35-0.83,0.54-1.33,0.54c-0.57,0.01-1.12-0.21-1.52-0.61c-0.36-0.38-0.56-0.88-0.54-1.4
			c-0.01-0.53,0.21-1.04,0.59-1.41c0.38-0.36,0.89-0.56,1.41-0.56c0.53,0,1.03,0.19,1.43,0.54c0.39,0.36,0.62,0.87,0.63,1.4
			L87.17,26.29z"/>
		<path class="st0" d="M98.25,16.68v6c-0.67-0.66-1.58-1.02-2.52-1c-1.11,0-2.18,0.41-3,1.16c-0.91,0.89-1.41,2.12-1.38,3.39
			c-0.02,1.29,0.47,2.53,1.37,3.45c0.79,0.8,1.88,1.22,3,1.18c0.96,0.05,1.89-0.31,2.56-1v0.75h3V16.68H98.25z M98.42,26.3
			c0.01,0.53-0.2,1.03-0.59,1.39c-0.4,0.37-0.93,0.57-1.47,0.58c-1.1,0-2-0.9-2-2c0-0.55,0.23-1.08,0.64-1.46l0,0
			c0.37-0.35,0.87-0.54,1.38-0.52c0.54-0.02,1.07,0.18,1.45,0.57C98.21,25.24,98.43,25.76,98.42,26.3z"/>
		<polygon class="st0" points="46.33,41.09 46.33,38.38 38.85,38.38 38.85,51.13 46.33,51.13 46.33,48.42 42.07,48.42 42.07,45.93 
			46.12,45.93 46.12,43.22 42.07,43.22 42.07,41.09 		"/>
		<path class="st0" d="M53.91,42.51v4.74c0.04,0.46-0.12,0.91-0.42,1.25c-0.3,0.24-0.68,0.36-1.07,0.35
			c-0.38,0.02-0.76-0.11-1.05-0.36c-0.32-0.33-0.47-0.78-0.43-1.24v-4.74h-3v5.17c-0.07,0.98,0.3,1.93,1,2.61
			c0.99,0.82,2.25,1.22,3.53,1.12c1.27,0.09,2.53-0.31,3.52-1.12c0.73-0.73,1.1-1.75,1-2.78v-5L53.91,42.51z"/>
		<path class="st0" d="M64.93,42.44c-0.31-0.09-0.62-0.13-0.94-0.13c-0.54-0.03-1.07,0.1-1.54,0.37c-0.34,0.21-0.63,0.48-0.86,0.8
			v-1h-3v8.62h3v-3.49c-0.08-0.77,0.15-1.54,0.63-2.15c0.33-0.35,0.79-0.54,1.27-0.52c0.41,0,0.82,0.09,1.18,0.28l0.19,0.1L65,42.48
			L64.93,42.44z"/>
		<path class="st0" d="M74.23,43.62c-2.21-1.85-5.43-1.85-7.64,0c-1.76,1.77-1.76,4.63,0,6.4c2.21,1.85,5.43,1.85,7.64,0
			C75.99,48.25,75.99,45.39,74.23,43.62z M69,45.35c0.82-0.75,2.08-0.75,2.9,0c0.78,0.82,0.78,2.12,0,2.94
			c-0.38,0.37-0.9,0.57-1.43,0.56c-0.55,0.02-1.08-0.18-1.47-0.56C68.22,47.47,68.22,46.17,69,45.35z"/>
		<polygon class="st0" points="73.41,38.82 71.36,37.44 68.84,40.49 70.29,41.54 		"/>
		<path class="st0" d="M85.41,43.45c-0.83-0.81-1.96-1.25-3.12-1.22c-0.94-0.04-1.85,0.33-2.51,1v-0.76h-3v12.9h3v-5
			c0.67,0.69,1.61,1.05,2.57,1c1.12,0.05,2.21-0.37,3-1.16c1.84-1.88,1.87-4.87,0.08-6.8L85.41,43.45z M83.63,46.78
			c0,0.56-0.23,1.1-0.63,1.49c-0.37,0.35-0.86,0.54-1.37,0.55c-0.55,0-1.08-0.22-1.47-0.6c-0.36-0.37-0.57-0.86-0.57-1.38
			c0.01-0.54,0.23-1.06,0.61-1.44c0.79-0.74,2.03-0.74,2.82,0C83.4,45.76,83.62,46.26,83.63,46.78z"/>
		<path class="st0" d="M94.49,42.51v0.7c-0.67-0.67-1.58-1.03-2.53-1c-1.14-0.02-2.23,0.4-3.06,1.18c-0.89,0.93-1.38,2.18-1.35,3.47
			c-0.02,1.2,0.44,2.36,1.27,3.22c0.85,0.89,2.05,1.37,3.29,1.31c0.9,0.04,1.78-0.32,2.38-1v0.74h3v-8.62H94.49z M94.66,46.8
			c0,1.1-0.9,2-2,2c-0.57,0.01-1.12-0.22-1.52-0.62c-0.35-0.38-0.54-0.88-0.53-1.4c0-0.53,0.21-1.04,0.58-1.41
			c0.38-0.36,0.89-0.56,1.42-0.56c0.53,0,1.03,0.19,1.43,0.54C94.44,45.73,94.66,46.25,94.66,46.8z"/>
		<path class="st1" d="M35.62,17.05c-4.71,0.55-6,5.42-9.57,9.62c-4.73,5.61-11.74,2.73-11.74,2.73C19,28.81,20.4,23.91,24,19.72
			C28.83,14.18,35.62,17.05,35.62,17.05z"/>
		<path class="st1" d="M18.57,25.29c0,0,5.88-4.66,3.34-11.53C20,8.58,16.31,4.91,18.27,0.59c0,0-5.83,4.72-3.4,11.53
			C16.72,17.32,20.52,21,18.57,25.29z"/>
		<path class="st1" d="M18.23,24.3c0,0,0.56-7.56-6-10.43C7.19,11.63,1.85,11.84,0,7.47c0,0-0.7,7.53,6.21,10.41
			C11.33,20,16.4,19.92,18.23,24.3z"/>
		<polygon class="st1" points="10.48,36.98 23.7,36.98 26.79,30.77 10.48,30.77 		"/>
		<polygon class="st1" points="12.59,55.18 13.7,55.18 21.29,37.81 12.59,37.81 		"/>
	</g>
</g>
</svg>
